<svg width="30" height="27" viewBox="0 0 30 27" fill="none" xmlns="http://www.w3.org/2000/svg">
<path d="M20.2631 8.89453C22.3569 8.89453 24.365 9.7263 25.8455 11.2068C27.3261 12.6874 28.1578 14.6955 28.1578 16.7893V25.9998H22.8947V16.7893C22.8947 16.0913 22.6174 15.422 22.1239 14.9285C21.6304 14.4349 20.961 14.1577 20.2631 14.1577C19.5651 14.1577 18.8958 14.4349 18.4023 14.9285C17.9088 15.422 17.6315 16.0913 17.6315 16.7893V25.9998H12.3683V16.7893C12.3683 14.6955 13.2001 12.6874 14.6807 11.2068C16.1612 9.7263 18.1693 8.89453 20.2631 8.89453V8.89453Z" stroke="#888888" stroke-width="2" stroke-linecap="round" stroke-linejoin="round"/>
<path d="M7.10495 10.2109H1.8418V26.0004H7.10495V10.2109Z" stroke="#888888" stroke-width="2" stroke-linecap="round" stroke-linejoin="round"/>
<path d="M4.47338 6.26316C5.92676 6.26316 7.10495 5.08496 7.10495 3.63158C7.10495 2.1782 5.92676 1 4.47338 1C3.01999 1 1.8418 2.1782 1.8418 3.63158C1.8418 5.08496 3.01999 6.26316 4.47338 6.26316Z" stroke="#888888" stroke-width="2" stroke-linecap="round" stroke-linejoin="round"/>
</svg>
