<svg width="32" height="27" viewBox="0 0 32 27" fill="none" xmlns="http://www.w3.org/2000/svg">
<path d="M30.4947 1.01348C29.2109 1.91907 27.7894 2.6117 26.285 3.0647C25.4776 2.13631 24.4045 1.47828 23.2109 1.17963C22.0173 0.88097 20.7608 0.956095 19.6113 1.39484C18.4618 1.83358 17.4747 2.61478 16.7837 3.63277C16.0926 4.65076 15.7309 5.85643 15.7474 7.08671V8.42738C13.3913 8.48847 11.0567 7.96594 8.95152 6.90632C6.84631 5.8467 5.03584 4.28288 3.68134 2.35415C3.68134 2.35415 -1.68134 14.4202 10.3847 19.7828C7.62361 21.657 4.33445 22.5968 1 22.4642C13.066 29.1675 27.8134 22.4642 27.8134 7.04649C27.8134 6.6711 27.7731 6.29571 27.7061 5.93373C29.0744 4.58434 30.04 2.88065 30.4947 1.01348V1.01348Z" stroke="#888888" stroke-width="2" stroke-linecap="round" stroke-linejoin="round"/>
</svg>
